<svg viewBox="0 0 512 512" xmlns="http://www.w3.org/2000/svg">
  <defs>
    <radialGradient id="bgg" cx="50%" cy="45%" r="65%">
      <stop offset="0%" stop-color="#fff0f7"/>
      <stop offset="100%" stop-color="#ffd6e8"/>
    </radialGradient>
  </defs>

  <!-- 배경 -->
  <rect width="512" height="512" rx="113" ry="113" fill="url(#bgg)"/>

  <!-- 몸통 -->
  <rect x="75" y="75" width="361" height="361" rx="118" ry="118" fill="#F6A56C"/>
  <!-- 상단 하이라이트 -->
  <rect x="75" y="75" width="361" height="181" rx="109" ry="109" fill="#FFC188"/>

  <!-- 귀 -->
  <polygon points="148,102 93,28 227,82" fill="#F6A56C"/>
  <polygon points="364,102 419,28 285,82" fill="#F6A56C"/>
  <!-- 귀 안쪽 -->
  <polygon points="148,89 115,59 195,79" fill="rgba(255,180,200,0.85)"/>
  <polygon points="364,89 397,59 317,79" fill="rgba(255,180,200,0.85)"/>

  <!-- 볼터치 -->
  <ellipse cx="165" cy="307" rx="32" ry="21" fill="rgba(255,120,150,0.40)"/>
  <ellipse cx="347" cy="307" rx="32" ry="21" fill="rgba(255,120,150,0.40)"/>

  <!-- 눈 -->
  <ellipse cx="192" cy="265" rx="21" ry="26" fill="#4a3a40"/>
  <ellipse cx="320" cy="265" rx="21" ry="26" fill="#4a3a40"/>
  <!-- 눈 하이라이트 -->
  <circle cx="198" cy="257" r="7" fill="#fff"/>
  <circle cx="327" cy="257" r="7" fill="#fff"/>

  <!-- 코 -->
  <polygon points="256,288 245,275 267,275" fill="#e87f9a"/>

  <!-- 입 -->
  <path d="M256,301 A17,17 0 0 1 222,301" fill="none" stroke="#b85f78" stroke-width="7" stroke-linecap="round"/>
  <path d="M290,301 A17,17 0 0 1 256,301" fill="none" stroke="#b85f78" stroke-width="7" stroke-linecap="round"/>
</svg>
